<?xml version="1.0" encoding="UTF-8" standalone="no"?>
<svg
   width="512"
   height="512"
   viewBox="0 0 512 512"
   version="1.1"
   id="svg7"
   sodipodi:docname="nf0t-logger.svg"
   inkscape:version="1.4 (e7c3feb100, 2024-10-09)"
   xmlns:inkscape="http://www.inkscape.org/namespaces/inkscape"
   xmlns:sodipodi="http://sodipodi.sourceforge.net/DTD/sodipodi-0.dtd"
   xmlns="http://www.w3.org/2000/svg"
   xmlns:svg="http://www.w3.org/2000/svg"
   xmlns:rdf="http://www.w3.org/1999/02/22-rdf-syntax-ns#"
   xmlns:cc="http://creativecommons.org/ns#"
   xmlns:dc="http://purl.org/dc/elements/1.1/">
  <title
     id="title1">NF0T Logger Icon v1</title>
  <sodipodi:namedview
     id="namedview7"
     pagecolor="#ffffff"
     bordercolor="#000000"
     borderopacity="0.25"
     inkscape:showpageshadow="2"
     inkscape:pageopacity="0.0"
     inkscape:pagecheckerboard="0"
     inkscape:deskcolor="#d1d1d1"
     inkscape:zoom="1.5605469"
     inkscape:cx="255.6796"
     inkscape:cy="256"
     inkscape:window-width="1920"
     inkscape:window-height="1008"
     inkscape:window-x="0"
     inkscape:window-y="1080"
     inkscape:window-maximized="1"
     inkscape:current-layer="svg7" />
  <defs
     id="defs2">
    <linearGradient
       id="bgGrad"
       x1="0%"
       y1="0%"
       x2="100%"
       y2="100%">
      <stop
         offset="0%"
         style="stop-color:#0078D4;stop-opacity:1"
         id="stop1" />
      <stop
         offset="100%"
         style="stop-color:#003D6A;stop-opacity:1"
         id="stop2" />
    </linearGradient>
  </defs>
  <path
     id="rect2"
     style="fill:url(#bgGrad)"
     d="m 125,20 h 262 c 58.17,0 105,46.83 105,105 v 262 c 0,58.17 -46.83,105 -105,105 H 125 C 66.83,492 20,445.17 20,387 V 125 C 20,66.83 66.83,20 125,20 Z" />
  <g
     transform="translate(394,109)"
     fill="none"
     stroke="#ffffff"
     stroke-width="10"
     stroke-linecap="round"
     id="g5">
    <circle
       cx="0"
       cy="0"
       r="7"
       fill="#ffffff"
       stroke="none"
       id="circle2" />
    <path
       d="M 15,-12 Q 25,0 15,12"
       id="path2" />
    <path
       d="M 28,-22 Q 42,0 28,22"
       id="path3" />
    <path
       d="m -15,-12 q -10,12 0,24"
       id="path4" />
    <path
       d="m -28,-22 q -14,22 0,44"
       id="path5" />
  </g>
  <path
     d="m 40,224 c 40,-210 80,-210 120,0 30,130 70,130 110,0 30,-100 70,-100 100,0 l 25,-90 25,160 25,-110 25,40"
     stroke="#ffffff"
     stroke-width="28"
     fill="none"
     stroke-linecap="round"
     stroke-linejoin="round"
     id="path6" />
  <text
     x="256"
     y="405"
     font-family="sans-serif"
     font-size="70"
     font-weight="900"
     font-style="italic"
     fill="white"
     text-anchor="middle"
     id="text6">NF0T</text>
  <text
     x="252"
     y="455"
     font-family="sans-serif"
     font-size="32px"
     font-weight="bold"
     letter-spacing="4"
     fill="#ffffff"
     text-anchor="middle"
     style="font-style:italic;font-variant:normal;font-weight:normal;font-stretch:normal;font-family:sans-serif;-inkscape-font-specification:'sans-serif Italic';opacity:0.9"
     id="text7">LOGGER</text>
  <circle
     cx="435"
     cy="365"
     r="48"
     fill="#28a745"
     stroke="#003D6A"
     stroke-width="9"
     id="circle7" />
  <path
     d="M410 365 L 430 385 L 460 345"
     stroke="white"
     stroke-width="12"
     fill="none"
     stroke-linecap="round"
     stroke-linejoin="round"
     id="path7" />
  <metadata
     id="metadata1">
    <rdf:RDF>
      <cc:Work
         rdf:about="">
        <dc:title>NF0T Logger Icon v1</dc:title>
        <dc:date>04-11-2026</dc:date>
        <dc:creator>
          <cc:Agent>
            <dc:title>Ryan Butler, NF0T</dc:title>
          </cc:Agent>
        </dc:creator>
        <dc:rights>
          <cc:Agent>
            <dc:title>GPL v3</dc:title>
          </cc:Agent>
        </dc:rights>
      </cc:Work>
    </rdf:RDF>
  </metadata>
</svg>
